# xmcd
#
# Track frame offsets:
#	150
#	16950
#	29151
#	41873
#	52871
#	64212
#	74676
#	97708
#	109179
#	130271
#	141808
#	156913
#	168848
#	181745
#
# Disc length: 2620 seconds
#
# Revision: 1
# Processed by: cddbd v1.5.1PL2 Copyright (c) Steve Scherf et al.
# Submitted via: EasyCDDAExtractor 9.1.3.1
#
DISCID=c00a3a0e
DTITLE=Johnny Cash - Unchained
DYEAR=1996
DGENRE=Country
TTITLE0=Rowboat
TTITLE1=Sea Of Heartbreak
TTITLE2=Rusty Cage
TTITLE3=The One Rose
TTITLE4=Country Boy
TTITLE5=Memories Are Made Of This
TTITLE6=Spiritual
TTITLE7=Kneeling Drunkard's Plea
TTITLE8=Southern Accents
TTITLE9=Mean Eyed Cat
TTITLE10=Meet Me In Heaven
TTITLE11=I Never Picked Cotton
TTITLE12=Unchained
TTITLE13=I've Been Everywhere
EXTD=
EXTT0=
EXTT1=
EXTT2=
EXTT3=
EXTT4=
EXTT5=
EXTT6=
EXTT7=
EXTT8=
EXTT9=
EXTT10=
EXTT11=
EXTT12=
EXTT13=
PLAYORDER=
